<?xml version="1.0" encoding="utf-8"?>
<svg id="loading_icon" image-rendering="auto" baseProfile="basic" version="1.1" preserveAspectRatio="xMidYMid meet" x="0px" y="0px" width="700" height="700" xmlns="http://www.w3.org/2000/svg" viewBox="0 0 700 700" xmlns:xlink="http://www.w3.org/1999/xlink">
  <g id="Scene-1" overflow="visible">
    <g id="Symbol-10" transform="translate(162 162)">
      <animateTransform attributeName="transform" additive="replace" type="translate" repeatCount="indefinite" dur="2s" keyTimes="0;.021;.042;.063;.083;.104;.125;.146;.167;.188;.208;.229;.25;.271;.292;.313;.333;.354;.375;.396;.417;.438;.458;.479;.5;.521;.542;.563;.583;.604;.625;.646;.667;.688;.708;.729;.75;.771;.792;.813;.833;.854;.875;.896;.917;.938;.958;.979;1" values="350,350;350.006,350.042;350.056,350.062;350.083,349.969;350.058,350.014;350.023,350.081;349.993,350.066;350.009,350.044;350.026,350.05;350.027,350.041;350.019,350.036;349.975,350.017;349.957,349.995;349.988,350.035;350.034,350.087;350,349.994;349.939,350.052;350.051,349.993;349.972,349.992;350.018,350.017;350.062,349.94;350.012,349.943;350.021,349.997;350.032,350.04;350.037,350.034;350.001,350.015;349.959,349.99;349.926,349.988;349.973,349.987;349.992,349.972;350.008,349.966;350.011,350.047;349.964,350.066;350.007,349.938;349.987,349.955;350.092,349.951;349.967,349.962;349.967,350.046;350.012,349.963;350.017,350.046;349.985,350.039;350.084,349.961;350.084,350.021;350.001,350.099;350.008,350.042;350.009,350.058;350.04,349.988;350,350;350,350"/>
      <animateTransform attributeName="transform" additive="sum" type="rotate" repeatCount="indefinite" dur="2s" keyTimes="0;.021;.042;.063;.083;.104;.125;.146;.167;.188;.208;.229;.25;.271;.292;.313;.333;.354;.375;.396;.417;.438;.458;.479;.5;.521;.542;.563;.583;.604;.625;.646;.667;.688;.708;.729;.75;.771;.792;.813;.833;.854;.875;.896;.917;.938;.958;.979;1" values="0,0,0;7.541,0,0;15.278,0,0;22.833,0,0;30.581,0,0;38.332,0,0;45.897,0,0;53.65,0,0;61.4,0,0;68.958,0,0;76.7,0,0;84.25,0,0;91.79,0,0;99.522,0,0;107.074,0,0;114.819,0,0;122.567,0,0;130.13,0,0;137.883,0,0;145.635,0,0;153.197,0,0;160.942,0,0;168.683,0,0;176.23,0,0;183.768,0,0;191.315,0,0;199.055,0,0;206.8,0,0;214.363,0,0;222.115,0,0;229.867,0,0;237.43,0,0;245.18,0,0;252.924,0,0;260.475,0,0;268.207,0,0;275.562,0,0;283.297,0,0;291.039,0,0;298.598,0,0;306.348,0,0;314.101,0,0;321.666,0,0;329.417,0,0;337.164,0,0;344.72,0,0;352.456,0,0;360,0,0;360,0,0"/>
      <animateTransform attributeName="transform" additive="sum" type="scale" repeatCount="indefinite" dur="2s" keyTimes="0;.021;.042;.063;.083;.167;.188;.208;.229;.25;.271;.292;.313;.333;.417;.438;.458;.479;.5;.521;.542;.563;.646;.667;.688;.708;.729;.75;.771;.792;.813;.896;.917;.938;.958;.979;1" values="1,1;1,.999;.998,.998;.998,.998;.997,.997;.997,.997;.998,.998;.998,.998;1,1;1,1;1,.999;.998,.998;.998,.998;.997,.997;.997,.997;.998,.998;1,.999;1,1;1,1;1,.999;.998,.998;.997,.997;.997,.997;.998,.998;.998,.998;1,.999;1,1;1,.999;1,.999;.998,.998;.997,.997;.997,.997;.998,.998;.998,.998;1,.999;1,1;1,1"/>
      <animateTransform attributeName="transform" additive="sum" type="translate" repeatCount="indefinite" dur="2s" keyTimes="0;.021;.042;.063;.083;.104;.125;.146;.167;.188;.229;.25;.271;.292;.313;.333;.354;.375;.396;.417;.438;.458;.479;.5;.521;.542;.563;.583;.604;.625;.667;.688;.708;.729;.75;.771;.792;.813;.833;.854;.875;.896;.917;.938;.958;.979;1" values="-188,-188;-188.05,-188.05;-188.1,-188.05;-188.1,-187.95;-188.05,-188;-188.1,-188.05;-188.1,-188.05;-188.1,-188;-188.05,-188;-188.1,-187.95;-188.1,-187.95;-188,-187.95;-188.1,-187.95;-188.05,-187.85;-188,-187.95;-188,-188;-187.95,-187.85;-188,-187.95;-187.95,-187.9;-187.9,-187.95;-187.9,-187.95;-187.9,-187.9;-187.9,-187.85;-187.9,-187.85;-187.95,-187.9;-187.9,-187.95;-187.9,-187.9;-187.95,-187.95;-187.95,-188;-187.9,-187.95;-187.9,-187.95;-187.95,-188.05;-187.95,-188;-187.95,-188.1;-187.95,-188;-187.85,-188.05;-188,-188.05;-187.95,-188.1;-187.9,-188.1;-188.05,-188.05;-188.05,-188.1;-187.9,-188.1;-188.05,-188.1;-188.05,-188.1;-188.15,-188;-188,-188;-188,-188"/>
      <g>
        <g id="Layer1_0_FILL">
          <path fill="#069" stroke="none" d="M389.8 30.75Q443.85 98.15 443.7 188.05 443.7 268.3 400.55 330.8L459.55 369.25Q463.75 363.15 467.6 356.95 513.95 282.1 514 188.05 513.85 82.25 455.15 .55 452.3 -3.35 449.35 -7.25L389.8 30.75Z"/>
          <path fill="#F00" stroke="none" d="M58.9 -112.2Q54.1 -110.15 49.45 -107.85 35.05 -101.15 21.4 -92.75L21.45 -92.85Q-6.15 -76.15 -31.3 -53.1L-32.35 -52Q-32.55 -51.95 -32.6 -51.8 -36.15 -48.6 -39.5 -45.35 -39.8 -45.05 -40.05 -44.75 -40.9 -44.05 -41.6 -43.3 -42.05 -42.8 -42.45 -42.45 -137.95 53.1 -137.85 188.05 -137.95 323 -42.45 418.5 48.05 509 174.2 513.8L174.65 513.85Q181.4 514 188.05 514 323 513.95 418.45 418.5L418.5 418.45Q441.85 395 459.55 369.25L400.55 330.8Q391.3 344.25 380 356.95 374.6 362.9 368.8 368.8 293.9 443.7 188.05 443.7 182.5 443.65 176.9 443.55 78.2 439.7 7.3 368.8 -67.55 293.9 -67.55 188.05 -67.55 82.15 7.3 7.2L7.3 7.3Q7.7 6.9 8.15 6.45 8.3 6.2 8.55 6.05 9.1 5.45 9.7 4.9 12.7 1.95 15.9 -.8L15.9 -.95Q16.05 -1.15 16.25 -1.3L16.5 -1.45Q36.25 -19.55 57.9 -32.7L57.95 -32.75Q68.3 -39.1 79.3 -44.2L79.85 -44.5Q83.1 -46.15 86.4 -47.55L86.65 -47.6Q128.35 -65.7 176.75 -67.35L177.3 -67.35Q182.65 -67.55 188.05 -67.55 253.85 -67.8 307.7 -38.8L307.7 -38.7Q324.45 -29.75 340 -17.9L339.95 -18Q345.8 -13.45 351.6 -8.55L351.55 -8.7Q356.7 -4.2 361.9 .55 365.3 3.8 368.8 7.3 370.1 8.6 371.35 9.95L371.55 10.15Q381.3 20.15 389.8 30.75L449.35 -7.25Q447.05 -10.25 444.65 -13.25L444.55 -13.35Q434.05 -26.4 422 -38.85L422.2 -38.55Q420.35 -40.5 418.5 -42.45 408 -52.85 397.1 -62.25L396.95 -62.3Q389.9 -68.35 382.6 -73.85L382.55 -73.85Q362.5 -89.15 340.95 -100.65L341 -100.65Q272.1 -137.7 188.05 -137.85 180.9 -137.95 173.8 -137.55L174.25 -137.55Q112.1 -135.3 58.65 -112.1L58.9 -112.2Z"/>
        </g>
        <path id="Layer1_0_1_STROKES" stroke="#069" stroke-width=".1" stroke-linejoin="bevel" stroke-linecap="round" fill="none" d="M400.55 330.8L459.55 369.25M389.8 30.75L449.35 -7.25"/>
      </g>
    </g>
  </g>
</svg>