<?xml version="1.0" encoding="utf-8"?>
<svg id="loading_icon" image-rendering="inherit" baseProfile="basic" version="1.1" preserveAspectRatio="xMidYMid slice" x="0px" y="0px" width="640" height="480" xmlns="http://www.w3.org/2000/svg" viewBox="0 0 640 480" xmlns:xlink="http://www.w3.org/1999/xlink">
  <defs>
    <g id="Layer1_0_FILL">
      <path fill="#000" stroke="none" d="M157 319.5L156.9 319.55 156.9 319.75 173.65 324.3 173.7 324.3Q180.65 326 189.05 327.15L189.1 327.15 195.85 327.8 195.9 327.8Q198.15 327.9 199.25 328L204.95 328.15 205.1 327.6 189.9 319.75Q191.35 319.5 193.8 319.1L193.8 319.05 193.85 319.05 211.6 314.5 211.65 314.5Q218.2 312.3 223.2 310.15L223.25 310.15 232.4 305.95 232.7 305.75 244.95 298.8 245 298.75Q250.25 295.4 255.1 291.8L255.15 291.8Q260.45 287.65 264.6 284L264.65 284 278.05 270.85Q286.3 268.85 294.15 266.05L294.35 265.95 298.35 260.7 298.35 260.65 306.6 248.05 297.85 250.1 297.4 250.15Q293.7 250.9 290.85 251.35 290.8 251.2 290.8 251.1 290.4 249.45 289.35 244.95L289.35 244.9 286.85 236.45 276.25 251.95 276.25 252.2Q275.95 260 274.85 267.65L261.55 280.65 261.6 280.65Q257.25 284.4 252.3 288.2L249.55 290.2 249.3 290.35 248.7 290.8 236.7 298.45 228.05 303 228.1 303 221.25 306.1Q215.65 308.4 210.05 310.2L207.15 311.1 207.2 311.1 189.15 315.3 188.95 315.3 188.6 315.35 197.2 304.3 197.25 304.25 197.3 304.15 198.75 301.7 198.5 301.5 186.1 308.25 186.1 308.2Q179.8 311.45 173 314.05L157 319.5M286.3 240.1L287.7 244.95 287.9 245.4Q289.4 251.95 289.5 252.4L289.65 253.1 290.35 253Q293.4 252.5 297.55 251.7L298.2 251.6 303.2 250.45 297.05 259.8 297.1 259.75 293.35 264.65Q285.6 267.45 277.5 269.4L277.25 269.45 263.55 282.85 263.6 282.85Q259.45 286.45 254.2 290.55 249.4 294.1 244.2 297.45L231.9 304.45 231.85 304.45 231.55 304.65 222.6 308.75Q217.6 310.9 211.15 313.05L211.2 313 193.55 317.55Q188.2 318.4 187.5 318.55L185.35 318.85 185.35 318.9 192.7 323.2 192.75 323.2 199.2 326.4Q198.1 326.3 196 326.25L189.25 325.6Q180.95 324.5 174.05 322.8L161.85 319.5 173.5 315.5 173.55 315.5Q180.4 312.85 186.8 309.6L186.85 309.6 194.3 305.55 185 317.5 189.15 316.85 189.3 316.85 189.4 316.8 207.55 312.6 207.6 312.6 210.5 311.7Q216.15 309.9 221.85 307.55L221.9 307.5 237.45 299.85 237.5 299.8 249.55 292.1 250.05 291.7 250.3 291.6 250.35 291.55 253.2 289.45 253.25 289.45Q258.25 285.6 262.6 281.8L262.65 281.8 276.35 268.4 276.4 268.1Q277.45 260.4 277.8 252.5L286.3 240.1M181.5 313.6L181.35 313.65 181.2 313.75 178 315.05 177.7 315.2 166.15 319.3Q174.45 319.15 182.15 318.2L189.3 310 181.5 313.6M280.1 261.4L280.05 261.6 279.85 265.1 279.95 265.2 280.3 265.45 293.2 261.55 298.6 253.9 287.15 256.45Q287.15 256.35 287.15 256.25 287 255 286.7 253.75L285.1 245.8 280.2 252.7 280.1 261.4M78.3 36.35L78.2 36.25 74.05 37.5Q67.25 39.55 60.85 42.25L60.8 42.25 46.4 48.95 35.15 55.35 35.1 55.35Q29 59.1 22.7 63.8L22.65 63.8 22.6 63.85 10.5 74.2 10.45 74.25 10.45 74.3 0 84.85 .75 85.95 8.65 82.5Q11.2 81.45 12.45 81L21.25 77.9 21.15 77.95 31.9 75.2 25.75 84.2 25.95 84 25.9 84.15 25.65 84.45 24.75 85.95 24.75 85.9Q23.75 87.5 21.9 90.9 18.75 96.8 16.9 101.1L13.9 108.25 8.25 126.4 8.25 126.6 7.45 129.9 7.4 130.25 7.25 130.75 7.25 130.8 4.85 145.5 4.85 145.8 4.45 149.3 4.45 149.7 4.15 153.15 4.1 177.05 4.15 177.4 4.15 177.95 6.6 197.1 7.4 200.95 7.4 201Q8.2 204.75 8.75 206.55L8.75 206.5 9.1 207.85 9.15 208.25 10.3 212.4 10.45 212.75 10.45 212.7 11.35 215.7 11.35 215.75 18.6 233.8 20.15 236.9 20 236.2 20.05 236.35 20.2 237.1 23.55 243.25 23.6 243.25Q26.6 248.5 30 253.5L31.35 277.15 32.75 285.8 37.45 290.7 37.5 290.7 52.8 304.45 64.05 313 61.95 295Q61.6 291.15 61.55 288.1L61.5 282.4 62.95 282.2 67.05 281.6Q70.55 281.05 73.8 280.4L73.9 280.4 89.8 276.25 84.45 272.2 84.05 271.95 84.1 272 76.55 265.75 65.35 255 57.9 253.85 57.95 253.85Q54.05 253.15 51.05 252.5L44 250.7Q42.4 250.3 40.55 249.65L37.5 248.65Q34.35 244.1 31.35 238.85L31.35 238.9 28.15 232.95 28.1 232.9 28.1 232.8 28 232.65 27.95 232.5 23.65 223.15 23.55 223 21.05 216.45 16.05 198.9 15.4 195.65 15.4 195.35 15.25 194.9 14.2 188.5 14.2 188.15 14.15 188.05 13.7 184.7 13.7 184.45 12.8 173.3 12.8 157.9 14.2 143.05 14.2 142.65 15.25 136.25 15.4 135.8 15.4 135.6 19.9 118.05 23.55 108.2 23.65 108.05 27.95 98.55 28.1 98.35 28.1 98.3 31.45 92.05 37.05 83.15 37.15 82.95 39.6 79.55 42.05 94.15 42.05 94.25 42.1 94.3 43.6 99.95 43.6 100 44.1 101.6Q44.75 103.9 45.2 104.95L45.15 104.85 46.95 110.15 47.8 110.1 48.65 105.1 48.65 104.7 49.7 98.5 49.75 98.3 49.8 98.25 49.8 98.2 52.9 86 52.9 86.05Q54.55 80.3 56.85 74.3L56.9 74.25 61.45 63.75 61.45 63.85 61.55 63.7 61.65 63.4 68.35 51Q71.95 45.05 75.75 39.85L78.25 36.4 78.3 36.35M62.05 45.05Q66.25 43.25 70.65 41.8 70.6 41.85 70.6 41.9 68.1 45.5 65.7 49.45L65.7 49.5 58.95 61.9 58.8 62.35 58.7 62.5 58.65 62.55 54.05 73.1 54.05 73.15Q51.65 79.3 49.95 85.2L49.95 85.25 46.7 97.85 46.5 99.05 45.05 93.5 41.35 71.85 34.65 81.2 34.3 81.9 34.45 81.55 28.85 90.45 28.85 90.5 28.8 90.55 25.2 97.2 20.9 106.7 20.8 106.85 16.95 117.3 12.45 134.85 11.15 142.45 11.15 142.75 9.75 157.6 9.75 173.55 10.65 184.7 10.65 184.95 10.75 185.25 11.15 188.25 11.15 188.75 12.3 195.7 12.35 195.85 12.35 196 13.05 199.6 13.1 199.65 13.1 199.75 18.1 217.3 18.1 217.35 20.75 224.2 20.8 224.3 20.8 224.35 20.9 224.5 20.9 224.45 25.25 234.05 28.65 240.35 28.7 240.35Q31.9 245.95 35.25 250.85L35.55 251.25 39.6 252.55Q41.5 253.2 43.15 253.6L43.65 253.8 50.3 255.45Q53.4 256.15 57.4 256.85L57.45 256.85 63.9 257.85 74.5 268.05 82.15 274.35 82.2 274.4 82.9 274.9 73.2 277.4Q73.15 277.4 73.1 277.45 70 278.05 66.6 278.6L58.45 279.8 58.5 288.15Q58.5 291.3 58.9 295.3L58.9 295.35 60.15 306.2 54.65 302 54.75 302.1 39.65 288.55 35.6 284.3 34.4 276.85 33 252.5 32.75 252.15Q29.3 247.1 26.25 241.75L26.25 241.8 22.9 235.65 22.9 235.55 21.45 232.65 14.25 214.7 14.25 214.8 13.35 211.8 13.2 211.45 12.1 207.45 12.15 207.85 12.05 207.15 11.7 205.8 11.7 205.75Q11.2 204 10.4 200.35L9.7 196.95 9.7 196.9 9.65 196.8 9.65 196.7 7.2 177.55 7.2 177.4 7.15 177.05 7.2 153.4 7.5 149.95 7.5 149.65 7.9 146.15 7.9 145.7 11.3 126.95 11.3 126.8 16.7 109.45 19.7 102.3Q21.55 98.1 24.6 92.35 26.35 89.1 27.35 87.5L28.25 86 28.05 86.3 28.1 86.15 38.95 70.25 20.4 75 20.25 75 11.45 78.1Q11.1 78.25 10.65 78.4L12.5 76.5 24.6 66.15Q30.7 61.6 36.65 58L47.8 51.65 62.05 45.05M15.4 135.55L15.4 135.35 15.45 135.2 15.4 135.55M39 259.4L39 261.35 40.05 275.15 41.45 284.75Q47.9 291.3 54.45 296.75 53 285.8 53 274.5 53.3 274.5 53.65 274.5 63.6 274 73.3 272.3L62.5 262.2 60.75 262.05 60.4 262.05 41.95 259.25 39.8 258.75 39.75 258.8 39 259.4M54.05 56.75Q49.15 61.6 44.15 67.45L46.25 87.55 50.55 74.9 55.35 63.85 64.75 46.9Q58.6 52.15 54.05 56.75M243.45 31.45L243.45 31.4 243.4 31.4Q237.8 27.95 232.7 25.35 228 22.95 221.5 20.3L215.75 18.1 215.7 18.1Q210.9 16.4 209.9 16.1L209.85 16.1 198 12.95 197.95 12.95 191.55 11.7Q185.45 5.9 178.85 .8L178.65 .65 171.15 .2 171.35 .25 170.8 .15 157.05 0 168.25 11.55 167.65 12.2 157.85 22.85 176.7 23.5 176.9 23.4Q184 19.15 190.6 16.15L204.3 19.2 219.9 24.55 219.85 24.55Q224.8 26.55 230.7 29.5L230.75 29.5 246.25 38.7 246.2 38.65Q250.45 41.55 251.1 42.1 256.25 45.9 260.45 49.6L261.05 50.1 261.1 50.15 261.15 50.15 261.35 50.3 276 64.95 268.65 64.1 268.2 64.1 263.55 63.75 263.05 63.75Q262.7 63.7 262.2 63.7L259.25 63.5 259.1 64 271.6 71.05 271.55 71.05Q277.75 74.65 283.55 78.9 289.45 83.15 295.05 88.15L296.7 89.6 296.75 89.55 296.85 89.5 296.3 87.4Q294.6 80.45 291.9 72.75 289.25 65.55 285.9 58.35L285.9 58.3 278.4 44.4 277.8 44.55 279.15 61.55 274.4 56.45 260.85 43.95 243.45 31.45M252.05 40.85Q251.35 40.35 247.1 37.4L247.05 37.35 231.5 28.15 231.45 28.1Q225.45 25.15 220.45 23.1L220.4 23.1 204.7 17.75 204.65 17.7 190.45 14.55 190.2 14.65Q183.45 17.65 176.3 21.95L161.3 21.4 170.4 11.55 160.75 1.6 170.8 1.7 171.05 1.75 178.05 2.15Q184.65 7.2 190.7 12.95L190.85 13.15 191.05 13.15 197.65 14.45 197.6 14.45 209.45 17.6Q210.4 17.9 215.2 19.55L220.95 21.75 220.9 21.75Q227.3 24.35 232 26.75 237.05 29.3 242.55 32.7L259.95 45.2 263.25 48 263.35 48.05 273.35 57.55 273.3 57.55 281.05 65.85 279.85 50.3 284.5 59 284.55 59.05Q287.85 66.2 290.45 73.3L290.45 73.25Q292.65 79.5 294.2 85.3L294.2 85.35Q289.45 81.25 284.45 77.65 278.65 73.35 272.35 69.7L264.7 65.4 268.15 65.65 268.45 65.65 280.2 67 280.2 66.95 262.35 49.1 262.05 48.9 261.45 48.4 261.45 48.45Q257.25 44.7 252 40.85L252.05 40.85M185.75 13.25L185.85 12.75 182.45 9.65 182.1 9.4 178.55 6.4 178.25 6.1 175.55 4 166.25 3.55 174.55 11.8 166.65 19.3Q172.35 19.5 175.15 19.75L185.75 13.25M282.1 68.9L271.3 67.3 282.85 74.9Q283.8 75.55 287.3 78.25L287.6 78.45 291.7 81.75Q287.4 75.35 282.1 68.9M324.05 209.55L325.15 207.65 324.65 207.2 322.9 208.55Q316.9 213.1 310.6 216.95 312.2 212.35 313.55 207.25L315.65 198.3 315.65 198.25 315.7 198.2 317.95 183.05Q318.6 176.25 318.75 170.8L318.75 170 318.8 169.6 318.8 166.2 318.85 165.8 317.75 146.25Q317 139.8 315.85 134.1L315.25 131.1 315.25 131.05 315.2 130.65 311.15 115.85 314.65 99.25 314.4 98.45 314.4 98.4 314.35 98.35 304.7 79.85 300.1 95.3 299.85 95.25 290.7 92.9 290.65 92.9 290.2 92.85 285.05 91.8 288.75 98.3 288.9 98.5 289 98.75 293.7 108.45 306.8 117.15 309.85 127.75 309.85 127.5 309.9 128.05 310.7 131.35 310.75 131.75 310.8 131.8 311.45 135Q312.55 140.85 313.25 146.85L313.9 154 314.25 169.75 314.2 170.1 313.9 177.15 312.25 191.7 310.9 199 310.8 199.35 310.75 199.4 310.7 199.8 310.7 199.85 309.1 206.35Q307.8 211.2 306.15 215.9L303.75 210 303.7 210Q303.3 209.15 301.25 204.85L301.25 204.8 299.05 200.55 298.5 200.7 298.6 202.9Q298.85 209.05 298.7 214.8 298.4 222.35 297.55 229 296.65 235.7 294.8 243.45L294.3 245.55 294.4 245.6 294.45 245.65 296.1 244.2Q301.55 239.3 306.9 233.45L306.9 233.4Q312.35 227.15 316.75 221.15 320.45 215.75 324.05 209.55M290.4 98.05L290.3 97.8 290.15 97.6 288.1 94 301.15 97.15 305.1 83.95 312.95 98.95 313.05 99.35 309.55 115.95 313.7 131.05 313.75 131.45 313.75 131.4 314.35 134.4Q315.5 140.05 316.2 146.45L317.3 165.8 317.25 166.2 317.25 169.6 317.2 170 317.2 170.75Q317 176.15 316.4 182.85L314.15 198 314.15 197.95 312.05 206.85Q310.4 213 308.45 218.5L307.7 220.55 309.55 219.45Q315.25 216 320.75 212.05 318.15 216.4 315.5 220.25 311.15 226.25 305.75 232.4 301.4 237.15 297 241.25 296.9 241.3 296.85 241.35 298.3 234.9 299.1 229.2 300 222.45 300.25 214.85 300.35 210.7 300.25 206.35 301.95 209.85 302.3 210.65L302.3 210.6 306.25 220.2 306.95 218.35Q309 212.7 310.6 206.75L312.2 200.2 312.25 199.8 312.25 199.85 312.35 199.45 312.35 199.4 313.75 192 313.8 192 313.8 191.95 315.45 177.35 315.75 170.15 315.8 169.7 315.45 153.85 314.8 146.7 314.8 146.65Q314.05 140.55 312.95 134.7L312.35 131.75 312.25 131.45 312.2 131 311.4 127.7 311.35 127.3 308.15 116.15 294.95 107.4 290.4 98.05M300.15 230.3L300.1 230.45 300.1 230.6 299.45 234.4 299.35 234.75 298.8 237.5Q302.5 230.7 305.6 223L301.75 212.8 300.15 230.3M310.25 98.05L306.05 89.65 302.9 100.95 297.7 99.25Q295.4 98.5 292.55 97.75L295.15 102.9 295.2 103.05 295.4 103.4 296.25 105.3 301.65 108.25Q305.25 110.35 307 111.5L307.5 111.3 309.05 104.8Q309.95 100.5 310.25 98.05Z"/>
      <path fill="#F00" stroke="none" d="M15.4 135.35L15.4 135.55 15.45 135.2 15.4 135.35M251.1 42.1Q250.45 41.55 246.2 38.65L246.25 38.7 230.75 29.5 230.7 29.5Q224.8 26.55 219.85 24.55L219.9 24.55 204.3 19.2 190.6 16.15Q184 19.15 176.9 23.4L176.7 23.5 157.85 22.85 167.65 12.2 168.05 11.75Q165.25 11.65 162.45 11.65 160.85 11.65 159.25 11.7 113.95 12.5 78.25 36.4L75.75 39.85Q71.95 45.05 68.35 51L61.65 63.4 61.55 63.7 61.45 63.85 61.45 63.75 56.9 74.25 56.85 74.3Q54.55 80.3 52.9 86.05L52.9 86 49.8 98.2 49.8 98.25 49.75 98.3 49.7 98.5 48.65 104.7 48.65 105.1 47.8 110.1 46.95 110.15 45.15 104.85 45.2 104.95Q44.75 103.9 44.1 101.6L43.6 100 43.6 99.95 42.1 94.3 42.05 94.25 42.05 94.15 39.6 79.55 37.15 82.95 37.05 83.15 31.45 92.05 28.1 98.3 28.1 98.35 27.95 98.55 23.65 108.05 23.55 108.2 19.9 118.05 15.4 135.6 15.4 135.8 15.25 136.25 14.2 142.65 14.2 143.05 12.8 157.9 12.8 173.3 13.7 184.45 13.7 184.7 14.15 188.05 14.2 188.15 14.2 188.5 15.25 194.9 15.4 195.35 15.4 195.65 16.05 198.9 21.05 216.45 23.55 223 23.65 223.15 27.95 232.5 28 232.65 28.1 232.8 28.1 232.9 28.15 232.95 31.35 238.9 31.35 238.85Q34.35 244.1 37.5 248.65L40.55 249.65Q42.4 250.3 44 250.7L51.05 252.5Q54.05 253.15 57.95 253.85L57.9 253.85 65.35 255 76.55 265.75 84.1 272 84.05 271.95 84.45 272.2 89.8 276.25 73.9 280.4 73.8 280.4Q70.55 281.05 67.05 281.6L62.95 282.2 62 282.35Q102.5 317.75 157 319.5L173 314.05Q179.8 311.45 186.1 308.2L186.1 308.25 198.5 301.5 198.75 301.7 197.3 304.15 197.25 304.25 197.2 304.3 188.6 315.35 188.95 315.3 189.15 315.3 207.2 311.1 207.15 311.1 210.05 310.2Q215.65 308.4 221.25 306.1L228.1 303 228.05 303 236.7 298.45 248.7 290.8 249.3 290.35 249.55 290.2 252.3 288.2Q257.25 284.4 261.6 280.65L261.55 280.65 274.85 267.65Q275.95 260 276.25 252.2L276.25 251.95 286.85 236.45 289.35 244.9 289.35 244.95Q290.4 249.45 290.8 251.1 292.65 248.35 294.4 245.6L294.3 245.55 294.8 243.45Q296.65 235.7 297.55 229 298.4 222.35 298.7 214.8 298.85 209.05 298.6 202.9L298.5 200.7 299.05 200.55 301.25 204.8 301.25 204.85Q303.3 209.15 303.7 210L303.75 210 306.15 215.9Q307.8 211.2 309.1 206.35L310.7 199.85 310.7 199.8 310.75 199.4 310.8 199.35 310.9 199 312.25 191.7 313.9 177.15 314.2 170.1 314.25 169.75 313.9 154 313.25 146.85Q312.55 140.85 311.45 135L310.8 131.8 310.75 131.75 310.7 131.35 309.9 128.05 309.85 127.5 309.85 127.75 306.8 117.15 293.7 108.45 289 98.75 288.9 98.5 288.75 98.3 285.05 91.8 290.2 92.85 290.65 92.9 290.7 92.9 299.85 95.25Q298.35 92.35 296.75 89.55L296.7 89.6 295.05 88.15Q289.45 83.15 283.55 78.9 277.75 74.65 271.55 71.05L271.6 71.05 259.1 64 259.25 63.5 262.2 63.7Q262.7 63.7 263.05 63.75L263.55 63.75 268.2 64.1 268.65 64.1 276 64.95 261.35 50.3 261.15 50.15 261.1 50.15 261.05 50.1 260.45 49.6Q256.25 45.9 251.1 42.1Z"/>
    </g>
  </defs>
  <g id="Scene-1" overflow="visible">
    <g id="Symbol-6" transform="translate(157.55 74.4)">
      <animateTransform attributeName="transform" additive="replace" type="translate" repeatCount="indefinite" dur="2s" keyTimes="0;.021;.042;.063;.083;.104;.125;.146;.167;.188;.208;.229;.25;.271;.292;.313;.333;.354;.375;.396;.417;.438;.458;.479;.5;.521;.542;.563;.583;.604;.625;.646;.667;.688;.708;.729;.75;.771;.792;.813;.833;.854;.875;.896;.917;.938;.958;.979;1" values="320.1,238.45;320.069,238.486;320.156,238.457;320.11,238.439;320.147,238.422;320.198,238.442;320.123,238.489;320.146,238.481;320.089,238.533;320.132,238.49;320.109,238.563;320.038,238.534;320.071,238.447;320.085,238.508;320.087,238.422;320.061,238.404;320.14,238.408;320.152,238.472;320.1,238.419;320.067,238.408;320.099,238.41;320.086,238.418;320.077,238.455;320.082,238.412;320.06,238.436;320.002,238.482;320.01,238.497;320.112,238.452;320.116,238.429;320.105,238.511;319.98,238.421;320.106,238.461;320.122,238.461;320.14,238.466;320.192,238.464;320.141,238.473;320.147,238.44;320.082,238.43;320.107,238.43;320.087,238.484;320.08,238.497;320.083,238.392;320.107,238.426;320.042,238.457;320.221,238.439;320.137,238.473;320.164,238.495;320.1,238.45;320.1,238.45"/>
      <animateTransform attributeName="transform" additive="sum" type="rotate" repeatCount="indefinite" dur="2s" keyTimes="0;.021;.042;.063;.083;.104;.125;.146;.167;.188;.208;.229;.25;.271;.292;.313;.333;.354;.375;.396;.417;.438;.458;.479;.5;.521;.542;.563;.583;.604;.625;.646;.667;.688;.708;.729;.75;.771;.792;.813;.833;.854;.875;.896;.917;.938;.958;.979;1" values="0,0,0;7.541,0,0;15.278,0,0;22.833,0,0;30.581,0,0;38.332,0,0;45.897,0,0;53.65,0,0;61.4,0,0;68.958,0,0;76.7,0,0;84.25,0,0;91.79,0,0;99.522,0,0;107.074,0,0;114.819,0,0;122.567,0,0;130.13,0,0;137.883,0,0;145.635,0,0;153.197,0,0;160.942,0,0;168.683,0,0;176.23,0,0;183.768,0,0;191.315,0,0;199.055,0,0;206.8,0,0;214.363,0,0;222.115,0,0;229.867,0,0;237.43,0,0;245.18,0,0;252.924,0,0;260.475,0,0;268.207,0,0;275.562,0,0;283.297,0,0;291.039,0,0;298.598,0,0;306.348,0,0;314.101,0,0;321.666,0,0;329.417,0,0;337.164,0,0;344.72,0,0;352.456,0,0;360,0,0;360,0,0"/>
      <animateTransform attributeName="transform" additive="sum" type="scale" repeatCount="indefinite" dur="2s" keyTimes="0;.021;.042;.063;.083;.167;.188;.208;.229;.25;.271;.292;.313;.333;.417;.438;.458;.479;.5;.521;.542;.563;.646;.667;.688;.708;.729;.75;.771;.792;.813;.896;.917;.938;.958;.979;1" values="1,1;1,.999;.998,.998;.998,.998;.997,.997;.997,.997;.998,.998;.998,.998;1,1;1,1;1,.999;.998,.998;.998,.998;.997,.997;.997,.997;.998,.998;1,.999;1,1;1,1;1,.999;.998,.998;.997,.997;.997,.997;.998,.998;.998,.998;1,.999;1,1;1,.999;1,.999;.998,.998;.997,.997;.997,.997;.998,.998;.998,.998;1,.999;1,1;1,1"/>
      <animateTransform attributeName="transform" additive="sum" type="translate" repeatCount="indefinite" dur="2s" keyTimes="0;.021;.042;.063;.083;.104;.125;.146;.167;.188;.208;.229;.25;.271;.292;.313;.333;.354;.375;.396;.417;.438;.458;.479;.5;.521;.542;.563;.583;.604;.625;.646;.667;.688;.708;.729;.75;.771;.792;.833;.854;.875;.896;.917;.938;.958;.979;1" values="-162.55,-164.05;-162.55,-164.15;-162.65,-164.05;-162.6,-163.95;-162.65,-164.05;-162.65,-164;-162.65,-164.1;-162.65,-164;-162.65,-164.05;-162.7,-163.95;-162.65,-164;-162.65,-164.1;-162.6,-164.05;-162.65,-164.05;-162.6,-164;-162.5,-164.05;-162.5,-164;-162.5,-163.9;-162.5,-164.05;-162.55,-164;-162.55,-164;-162.5,-163.95;-162.55,-163.95;-162.45,-163.95;-162.5,-164;-162.55,-163.95;-162.5,-163.95;-162.45,-163.95;-162.4,-164.05;-162.45,-164;-162.55,-164;-162.45,-163.95;-162.45,-164.05;-162.5,-164.15;-162.5,-164.15;-162.5,-164.05;-162.5,-164.2;-162.5,-164.05;-162.45,-164.1;-162.45,-164.1;-162.5,-164.05;-162.55,-164.1;-162.55,-164.05;-162.65,-164.1;-162.65,-164.1;-162.65,-164.15;-162.55,-164.05;-162.55,-164.05"/>
    </g>
  </g>
</svg>