<?xml version="1.0" encoding="utf-8"?>
<svg id="loading_icon" image-rendering="optimizeSpeed" baseProfile="basic" version="1.1" x="0px" y="0px" width="700" height="700" xmlns="http://www.w3.org/2000/svg" xmlns:xlink="http://www.w3.org/1999/xlink">
  <g id="Scene-1-copy" overflow="visible">
    <g id="Symbol-10" transform="translate(162 162)">
      <animateTransform attributeName="transform" additive="replace" type="translate" repeatCount="indefinite" dur="2s" keyTimes="0;.021;.042;.063;.083;.104;.125;.146;.167;.188;.208;.229;.25;.271;.292;.313;.333;.354;.375;.396;.417;.438;.458;.479;.5;.521;.542;.563;.583;.604;.625;.646;.667;.688;.708;.729;.75;.771;.792;.813;.833;.854;.875;.896;.917;.938;.958;.979;1" values="350,350;350.01,349.99;350.026,350.107;350.067,349.919;350.065,350.011;350.064,350.012;350.039,350.073;350.033,350.039;350.038,350.009;350.01,350.067;350.056,350.031;349.971,350.016;349.952,350.045;350.003,350.063;350.025,350.062;349.995,350.063;349.987,350.024;350.072,349.991;349.978,349.968;349.997,349.978;350.042,349.946;349.989,349.959;349.95,350;350.033,349.963;350.009,350.086;350.018,349.938;350.023,349.983;349.929,349.993;349.953,349.959;349.968,349.978;350.008,350.051;349.98,350.066;350.038,350.061;350.045,349.962;350.014,349.97;350.092,349.947;349.964,349.979;349.991,349.992;349.992,349.927;350.04,350.036;349.969,349.994;350.06,349.973;350.009,350.061;350.034,350.086;349.975,350.074;350.057,350.026;350.044,350.041;350,350;350,350"/>
      <animateTransform attributeName="transform" additive="sum" type="rotate" repeatCount="indefinite" dur="2s" keyTimes="0;.021;.042;.063;.083;.104;.125;.146;.167;.188;.208;.229;.25;.271;.292;.313;.333;.354;.375;.396;.417;.438;.458;.479;.5;.521;.542;.563;.583;.604;.625;.646;.667;.688;.708;.729;.75;.771;.792;.813;.833;.854;.875;.896;.917;.938;.958;.979;1" values="0,0,0;7.514,0,0;15.271,0,0;22.799,0,0;30.57,0,0;38.342,0,0;45.884,0,0;53.659,0,0;61.431,0,0;68.966,0,0;76.727,0,0;84.437,0,0;91.76,0,0;99.512,0,0;107.035,0,0;114.801,0,0;122.571,0,0;130.111,0,0;137.887,0,0;145.662,0,0;153.198,0,0;160.965,0,0;168.726,0,0;176.243,0,0;183.756,0,0;191.274,0,0;199.034,0,0;206.8,0,0;214.338,0,0;222.113,0,0;229.889,0,0;237.428,0,0;245.198,0,0;252.965,0,0;260.488,0,0;268.239,0,0;275.519,0,0;283.272,0,0;291.034,0,0;298.569,0,0;306.341,0,0;314.116,0,0;321.657,0,0;329.43,0,0;337.201,0,0;344.73,0,0;352.485,0,0;360,0,0;360,0,0"/>
      <animateTransform attributeName="transform" additive="sum" type="scale" repeatCount="indefinite" dur="2s" keyTimes="0;.021;.042;.063;.083;.104;.146;.167;.188;.208;.229;.25;.271;.292;.313;.333;.354;.396;.417;.438;.458;.479;.5;.521;.542;.563;.583;.646;.667;.688;.708;.729;.75;.771;.792;.813;.833;.875;.896;.917;.938;.958;.979;1" values="1,1;1,.999;.997,.997;.996,.996;.996,.996;.995,.995;.995,.995;.996,.996;.997,.997;.998,.998;1,.999;1,1;.998,.998;.997,.997;.996,.996;.996,.996;.995,.995;.995,.995;.996,.996;.997,.997;.998,.998;1,.999;1,.999;.998,.998;.997,.997;.996,.996;.995,.995;.995,.995;.996,.996;.997,.997;.998,.998;1,1;1,.999;.998,.998;.997,.997;.996,.996;.995,.995;.995,.995;.996,.996;.996,.996;.997,.997;1,.999;1,1;1,1"/>
      <animateTransform attributeName="transform" additive="sum" type="translate" repeatCount="indefinite" dur="2s" keyTimes="0;.021;.042;.063;.083;.104;.125;.146;.167;.188;.208;.229;.25;.271;.292;.313;.333;.354;.375;.396;.417;.438;.458;.479;.5;.521;.542;.563;.583;.604;.625;.646;.667;.688;.708;.729;.75;.771;.792;.813;.833;.854;.875;.896;.917;.938;.958;.979;1" values="-188,-188;-188.1,-188;-188.1,-188.15;-188.1,-187.9;-188.1,-188;-188.15,-187.95;-188.15,-188;-188.15,-187.95;-188.05,-187.95;-188.15,-187.95;-188.15,-187.9;-188.15,-187.95;-188.05,-187.95;-188.15,-187.95;-188.05,-187.85;-188.05,-187.9;-187.95,-187.9;-187.9,-187.85;-187.95,-187.9;-187.95,-187.95;-187.9,-187.95;-187.95,-187.9;-187.9,-187.85;-187.85,-187.9;-187.9,-187.75;-187.95,-187.95;-187.8,-188;-187.85,-187.9;-187.95,-188;-187.9,-187.95;-187.75,-187.9;-187.9,-187.9;-187.85,-188;-187.9,-188.1;-187.95,-188.05;-187.95,-188.1;-187.9,-188;-187.9,-188.1;-188,-188.05;-187.95,-188.15;-187.9,-188.1;-188,-188.05;-187.95,-188.15;-187.95,-188.15;-188,-188.15;-188.15,-188.1;-188.15,-188.1;-188,-188;-188,-188"/>
      <g transform="matrix(1.547 0 0 1.547 -102.75 -102.75)">
        <g id="Layer1_0_FILL">
          <path fill="#069" stroke="none" d="M389.8 30.75Q443.85 98.15 443.7 188.05 443.7 268.3 400.55 330.8L459.55 369.25Q463.75 363.15 467.6 356.95 513.95 282.1 514 188.05 513.85 82.25 455.15 .55 452.3 -3.35 449.35 -7.25L389.8 30.75Z"/>
          <path fill="#F00" stroke="none" d="M58.65 -112.1L58.9 -112.2Q54.1 -110.15 49.45 -107.85 35.05 -101.15 21.4 -92.75L21.45 -92.85Q-6.15 -76.15 -31.3 -53.1L-32.35 -52Q-32.55 -51.95 -32.6 -51.8 -36.15 -48.6 -39.5 -45.35 -39.8 -45.05 -40.05 -44.75 -40.9 -44.05 -41.6 -43.3 -42.05 -42.8 -42.45 -42.45 -137.95 53.1 -137.85 188.05 -137.95 323 -42.45 418.5 48.05 509 174.2 513.8L174.65 513.85Q181.4 514 188.05 514 323 513.95 418.45 418.5L418.5 418.45Q441.85 395 459.55 369.25L400.55 330.8Q391.3 344.25 380 356.95 374.6 362.9 368.8 368.8 293.9 443.7 188.05 443.7 182.520 443.652 176.9 443.55 78.2 439.7 7.3 368.8 -67.55 293.9 -67.55 188.05 -67.55 82.15 7.3 7.2L7.3 7.3Q7.7 6.9 8.15 6.45 8.3 6.2 8.55 6.05 9.1 5.45 9.7 4.9 12.7 1.95 15.9 -.8L15.9 -.95Q16.05 -1.15 16.25 -1.3L16.5 -1.45Q36.25 -19.55 57.9 -32.7L57.95 -32.75Q68.3 -39.1 79.3 -44.2L79.85 -44.5Q83.1 -46.15 86.4 -47.55L86.65 -47.6Q128.35 -65.7 176.75 -67.35L177.3 -67.35Q182.65 -67.55 188.05 -67.55 253.85 -67.8 307.7 -38.8L307.7 -38.7Q324.45 -29.75 340 -17.9L339.95 -18Q345.8 -13.45 351.6 -8.55L351.55 -8.7Q356.7 -4.2 361.9 .55 365.3 3.8 368.8 7.3 370.1 8.6 371.35 9.95L371.55 10.15Q381.3 20.15 389.8 30.75L449.35 -7.25Q447.05 -10.25 444.65 -13.25L444.55 -13.35Q434.05 -26.4 422 -38.85L422.2 -38.55Q420.35 -40.5 418.5 -42.45 408 -52.85 397.1 -62.25L396.95 -62.3Q389.9 -68.35 382.6 -73.85L382.55 -73.85Q362.5 -89.15 340.95 -100.65L341 -100.65Q272.1 -137.7 188.05 -137.85 180.9 -137.95 173.8 -137.55L174.25 -137.55Q112.1 -135.3 58.65 -112.1Z"/>
        </g>
        <path id="Layer1_0_1_STROKES" stroke="#069" stroke-width=".1" stroke-linejoin="bevel" stroke-linecap="round" fill="none" d="M400.55 330.8L459.55 369.25M389.8 30.75L449.35 -7.25"/>
      </g>
    </g>
  </g>
</svg>