<?xml version="1.0" encoding="utf-8"?>
<!-- Generator: Adobe Illustrator 23.0.1, SVG Export Plug-In . SVG Version: 6.00 Build 0)  -->
<svg version="1.1" xmlns="http://www.w3.org/2000/svg" xmlns:xlink="http://www.w3.org/1999/xlink" x="0px" y="0px"
	 viewBox="0 0 512 512" style="enable-background:new 0 0 512 512;" xml:space="preserve">
<style type="text/css">
	.st0{fill:#050707;}
	.st1{fill:#060808;}
	.st2{fill:#070909;}
	.st3{fill:#FDFDFD;}
	.st4{fill:#090B0B;}
	.st5{fill:#080A0A;}
	.st6{fill:#080909;}
	.st7{fill:#0A0C0C;}
	.st8{fill:#121414;}
	.st9{fill:#1E1F1F;}
	.st10{fill:#1C1E1E;}
	.st11{fill:#494A4A;}
	.st12{fill:#E1E1E1;}
	.st13{fill:#3F4141;}
	.st14{fill:#9F9C9C;}
	.st15{fill:#CBD5D5;}
	.st16{fill:#939192;}
	.st17{fill:#757373;}
	.st18{fill:#9D9C9C;}
	.st19{fill:#818585;}
	.st20{fill:#3B3E3E;}
	.st21{fill:#353B3B;}
	.st22{fill:#3A3F3F;}
	.st23{fill:#595D5D;}
	.st24{fill:#7A7777;}
	.st25{fill:#E3E3E3;}
	.st26{fill:#5F5A5B;}
	.st27{fill:#676565;}
	.st28{fill:#3C3F3F;}
	.st29{fill:#837F7F;}
	.st30{fill:#666C6C;}
	.st31{fill:#FEFEFE;}
	.st32{fill:#FFFFFF;}
	.st33{fill:#F7F8F8;}
	.st34{fill:#F2F2F2;}
	.st35{fill:#A19F9F;}
	.st36{fill:#B6C3C3;}
	.st37{fill:#7A7B7C;}
	.st38{fill:#646B6B;}
	.st39{fill:#9A9C9C;}
	.st40{fill:#CFD3D3;}
	.st41{fill:#7B7D7D;}
	.st42{fill:#C4C6C6;}
	.st43{fill:#7C8080;}
	.st44{fill:#A8ADAD;}
	.st45{fill:#737070;}
	.st46{fill:#3F4040;}
	.st47{fill:#484A4A;}
	.st48{fill:#D7D2D2;}
	.st49{fill:#6C7878;}
	.st50{fill:#FBFBFB;}
	.st51{fill:#878383;}
	.st52{fill:#B3BDBC;}
	.st53{fill:#CFD1D2;}
	.st54{fill:#4B4D4C;}
	.st55{fill:#A9ADAD;}
	.st56{fill:#B1B0B0;}
	.st57{fill:#EFF0F0;}
	.st58{fill:#8A8787;}
	.st59{fill:#A6A3A4;}
	.st60{fill:#B4B9B9;}
	.st61{fill:#6F7778;}
	.st62{fill:#B9BABA;}
	.st63{fill:#ABABAB;}
	.st64{fill:#2B2C2C;}
	.st65{fill:#D7DBDB;}
	.st66{fill:#747C7D;}
	.st67{fill:#29669C;}
	.st68{fill:#666363;}
	.st69{fill:#81889A;}
	.st70{fill:#222323;}
	.st71{fill:#939797;}
	.st72{fill:#3D3737;}
	.st73{fill:#9CA8A8;}
	.st74{fill:#5E5D5D;}
	.st75{fill:#747575;}
	.st76{fill:#726C6C;}
	.st77{fill:#BECECE;}
	.st78{fill:#D9DADA;}
	.st79{fill:#343A3B;}
	.st80{fill:#E4E6E6;}
	.st81{fill:#323838;}
	.st82{fill:#444444;}
	.st83{fill:#7E6A6A;}
	.st84{fill:#595252;}
	.st85{fill:#444343;}
	.st86{fill:#B6C1C1;}
	.st87{fill:#2A2E2E;}
	.st88{fill:#8C8E8F;}
	.st89{fill:#91A3A3;}
	.st90{fill:#E7E8E8;}
	.st91{fill:#635A5A;}
	.st92{fill:#BBBDBD;}
	.st93{fill:#414545;}
	.st94{fill:#5D5252;}
	.st95{fill:#131313;}
	.st96{fill:#2B3232;}
	.st97{fill:#3B3F40;}
	.st98{fill:#949596;}
	.st99{fill:#737B7B;}
	.st100{fill:#858E8E;}
	.st101{fill:#ED2426;}
	.st102{fill:#ED2729;}
	.st103{fill:#343A3A;}
	.st104{fill:#BAB0B0;}
	.st105{fill:#C6CFCE;}
	.st106{fill:#99A1A1;}
	.st107{fill:#414242;}
	.st108{fill:#246097;}
	.st109{fill:#276399;}
	.st110{fill:#141414;}
	.st111{fill:#7D8585;}
	.st112{fill:#454646;}
	.st113{fill:#343434;}
	.st114{fill:#EE2A2C;}
	.st115{fill:#C98181;}
	.st116{fill:#0C0D0D;}
	.st117{fill:#A76968;}
	.st118{fill:#2A2B2B;}
	.st119{fill:#110E0E;}
	.st120{fill:#5D5757;}
	.st121{fill:#2B2B2A;}
	.st122{fill:#5C5C5D;}
	.st123{fill:#4C3939;}
	.st124{fill:#49484A;}
	.st125{fill:#3C3A3A;}
	.st126{fill:#505152;}
	.st127{fill:#1B1F1F;}
	.st128{fill:#777B7B;}
	.st129{fill:#0C0C0D;}
	.st130{fill:#0C0C0C;}
	.st131{fill:#28659B;}
	.st132{fill:#434343;}
	.st133{fill:#393A39;}
	.st134{fill:#4E4C4C;}
	.st135{fill:#487399;}
	.st136{fill:#272726;}
	.st137{fill:#2D2E2D;}
	.st138{fill:#333333;}
	.st139{fill:#171516;}
	.st140{fill:#EDE4E2;}
	.st141{fill:#0F0E0E;}
	.st142{fill:#9F6967;}
	.st143{fill:#286399;}
	.st144{fill:#0E0E0F;}
	.st145{fill:#677682;}
	.st146{fill:#0E0E0E;}
	.st147{fill:#202121;}
	.st148{fill:#1B1B1B;}
	.st149{fill:#ED2326;}
	.st150{fill:#29679D;}
	.st151{fill:#060707;}
	.st152{fill:#313030;}
	.st153{fill:#616161;}
	.st154{fill:#A4AAAA;}
	.st155{fill:#353636;}
	.st156{fill:#100F0F;}
	.st157{fill:#0F0F0F;}
	.st158{fill:#FCFCFC;}
	.st159{fill:#EEEFEF;}
	.st160{fill:#868787;}
	.st161{fill:#AEB6B6;}
	.st162{fill:#F2F3F3;}
	.st163{fill:#E0E1E1;}
	.st164{fill:#7B7C7C;}
	.st165{fill:#F9F9F9;}
	.st166{fill:#B2B3B3;}
	.st167{fill:#8F9292;}
	.st168{fill:#0F0F10;}
	.st169{fill:#929B9C;}
	.st170{fill:#E0E2E2;}
	.st171{fill:#E4E5E5;}
	.st172{fill:#8D9191;}
</style>
<g id="Layer_1">
</g>
<g id="Layer_2">
	<path d="M504.77,191.01c-6.41-25.65-40.08-27.92-41.36-27.99l-161.29-13.36c-6.8-7.2-13.37-13.22-18.68-16.26
		c-22.02-12.61-72.86-14.19-95.14-11.52c-15.06,1.8-35.8,10.98-55.85,19.87c-15.83,7.01-30.78,13.63-41.44,16.04
		c-13.08,2.96-52.93,1.54-67.18,0.75c-2.92-0.16-5.52,1.69-6.35,4.47c-1.05,3.52-25.38,86.94,0.17,152.62
		c0.94,2.41,3.25,3.99,5.84,3.99h38c9.62,12.91,52.24,67.7,85.43,71.41c1.27,0.14,2.52,0.21,3.74,0.21c7.01,0,13.17-2.33,18.31-6.9
		l9.92-8.5c8.37,3.49,25.02,9.47,40.77,9.47c8.28,0,16.31-1.66,22.75-6.2c8.81-6.22,13.14-16.6,12.91-30.87
		c9.32-0.52,17.72-2.86,24.23-7.84c11.55-8.85,15.49-24.31,11.79-45.97c6.9-2.79,29.97-13.25,32.07-29.11
		c1.08-8.12-3.15-15.66-12.57-22.39c-27.23-19.45-42.06-20.17-77.54-17.26c-1.18,0.06-3.99-1.33-6.52-2.61l-23.4-17.4l35.74-4.76
		c32.13,25.92,58.42,35.72,78.17,29.12c1.32-0.44,2.57-0.95,3.76-1.5l143.48,4.29c0.06,0,0.12,0,0.19,0
		c15.61,0,28.12-5.02,35.24-14.14C505.75,211.2,507.43,201.63,504.77,191.01z M235.17,368.86c-13.91,9.83-45.11-1.41-55.96-6.57
		l-0.18,0.38c-16.13-7.61-31.16-18.01-32.07-22.24c0.41-3.01,7.66-11.35,16.08-18.7c12.58,6.36,48.7,23.41,79.72,26.21
		C243.01,358.08,240.47,365.11,235.17,368.86z M271.91,330.43c-22.09,16.92-84.57-9.94-106.78-21.72c-0.89-0.47-1.85-0.7-2.81-0.72
		l1.38-0.99c-0.06-0.09-6.29-9.06-3.11-17.26c2.72-7,11.93-12.39,26.66-15.63l91.2,19.54C282.11,311.92,279.93,324.29,271.91,330.43
		z M234.3,238.15c34.55-2.83,45.86-1.73,69.23,14.96c3.68,2.63,7.96,6.59,7.44,10.54c-0.91,6.92-14.06,14.98-24.01,19.01
		l-97.43-20.88c-8.11-4.78-19.21-14.1-18.77-20.18c0.23-3.13,4.35-6.41,11.61-9.23c19.77-7.69,30.26-2.41,38.69,1.83
		C225.47,236.43,229.64,238.53,234.3,238.15z M244.93,189.48c-1.34-1.1-3.07-1.6-4.81-1.37l-53.7,7.16
		c-2.53,0.34-4.6,2.17-5.24,4.64c-0.64,2.47,0.28,5.08,2.32,6.6l13.01,9.68c-5.51,0.46-11.7,1.79-18.7,4.51
		c-12.37,4.81-18.95,11.55-19.56,20.01c-0.7,9.74,7.09,18.52,14.43,24.56c-12.42,4.54-20.39,11.21-23.78,19.93
		c-5.1,13.13,2.35,25.7,4.22,28.53c-9.04,8.01-19.71,19.45-18.63,28.14c1.33,10.67,18.75,21.66,31.62,28.39l-5.41,4.63
		c-3.4,3.03-7.46,4.22-12.42,3.67c-25.99-2.89-65.52-50.7-78.56-68.87c-1.18-1.64-3.07-2.61-5.09-2.61H27.83
		c-18.44-52.49-4.17-117.87,0.38-135.79c13.73,0.63,51.12,1.97,65.55-1.29c11.85-2.68,27.35-9.54,43.75-16.81
		c19.21-8.51,39.07-17.31,52.27-18.88c23.08-2.75,69.72-0.19,87.43,9.96c13.14,7.52,40.13,42.45,51.65,58.28
		c-1.69,4.24-6.1,12.47-15.7,15.62C302.28,221.73,281.62,219.65,244.93,189.48z M490.05,210.95c-4.61,5.91-13.82,9.3-25.27,9.32
		l-129.36-3.87c4.77-6.64,6.37-12.98,6.48-13.45c0.43-1.77,0.07-3.64-0.99-5.12c-2.15-3.01-13.71-19.04-26.78-34.61l148.4,12.29
		c0.26,0.01,25.88,1.71,30.09,18.53C494.33,200.89,493.46,206.58,490.05,210.95z"/>
</g>
</svg>
