<?xml version="1.0" encoding="utf-8"?>
<svg id="loading_icon" image-rendering="auto" baseProfile="basic" version="1.1" preserveAspectRatio="xMidYMid meet" x="0px" y="0px" width="700" height="700" xmlns="http://www.w3.org/2000/svg" viewBox="0 0 700 700" xmlns:xlink="http://www.w3.org/1999/xlink">
  <g id="Scene-1" overflow="visible">
    <g id="Symbol-11" transform="translate(48.9 227.25)">
      <animateTransform attributeName="transform" additive="replace" type="translate" repeatCount="indefinite" dur="2.917s" keyTimes="0;.014;.029;.043;.057;.071;.086;.1;.114;.129;.143;.157;.171;.186;.2;.214;.229;.243;.257;.271;.286;.3;.314;.329;.343;.357;.371;.386;.4;.414;.429;.443;.457;.471;.486;.5;.514;.529;.543;.557;.571;.586;.6;.614;.628;.643;.657;.671;.686;.7;.714;.728;.743;.757;.771;.786;.8;.814;.828;.843;.857;.871;.886;.9;.914;.928;.943;.957;.971;.986;1" values="48.9,227.25;55.4,227.25;61.9,227.25;68.45,227.25;74.95,227.25;81.5,227.25;88,227.25;94.55,227.25;101.05,227.25;107.6,227.25;114.1,227.25;120.65,227.25;127.15,227.25;133.7,227.25;140.2,227.25;146.75,227.25;153.25,227.25;159.8,227.25;166.3,227.25;172.8,227.25;179.35,227.25;185.85,227.25;192.4,227.25;198.9,227.25;205.45,227.25;211.95,227.25;218.5,227.25;225,227.25;231.55,227.25;238.05,227.25;244.6,227.25;251.1,227.25;257.65,227.25;264.15,227.25;270.7,227.25;263.9,227.25;257.15,227.25;250.35,227.25;243.6,227.25;236.85,227.25;230.05,227.25;223.3,227.25;216.5,227.25;209.75,227.25;203,227.25;196.2,227.25;189.45,227.25;182.65,227.25;175.9,227.25;169.15,227.25;162.35,227.25;155.6,227.25;148.8,227.25;142.05,227.25;135.25,227.25;128.5,227.25;121.75,227.25;114.95,227.25;108.2,227.25;101.4,227.25;94.65,227.25;87.9,227.25;81.1,227.25;74.35,227.25;67.55,227.25;60.8,227.25;54.05,227.25;47.3,227.25;40.55,227.25;33.75,227.25;33.75,227.25"/>
      <path fill="#F00" stroke="none" d="M152.6 24.25Q128.5 0 88.25 0 49.75 0 25 24.25 0 48.5 0 87.9 0 125.35 23.4 150.65 46.6 175.75 88.25 175.75L178.1 175.95 158.05 146.25Q176.5 123.05 176.5 87.9 176.5 48.5 152.6 24.25M120.45 52.2Q129.75 66.8 129.75 87.9 129.75 97.4 127.8 99.85L81.4 99.85 103.9 136.4Q97.75 138.5 89.85 138.5 67 138.5 56.6 121.8 46.25 105.1 46.25 87.9 46.25 67.15 56.8 52.4 67.15 37.45 89.85 37.45 111.1 37.45 120.45 52.2Z" opacity=".5"/>
      <path fill="#069" stroke="none" d="M232.55 .15L188.8 .15 188.8 175.95 232.75 175.95 232.75 64 263 105.8 306.55 105.8 232.55 .15M380.4 .35L336.65 .35 289.15 68.35 336.45 68.35 336.45 175.95 380.4 175.95 380.4 .35Z" opacity=".5"/>
    </g>
    <g id="Symbol-10" transform="translate(162 162)">
      <animateTransform attributeName="transform" additive="replace" type="translate" repeatCount="indefinite" dur="2.917s" keyTimes="0;.014;.029;.043;.057;.071;.086;.1;.114;.129;.143;.157;.171;.186;.2;.214;.229;.243;.257;.271;.286;.3;.314;.329;.343;.357;.371;.386;.4;.414;.429;.443;.457;.471;.486;.5;.514;.529;.543;.557;.571;.586;.6;.614;.628;.643;.657;.671;.686;.7;.714;.728;.743;.757;.771;.786;.8;.814;.828;.843;.857;.871;.886;.9;.914;.928;.943;.957;.971;.986;1" values="350,350;349.989,350.048;350.032,350.066;350.07,350.045;350.078,350.074;350.009,349.987;350.129,350.068;350.024,349.952;350.016,350.019;350.005,350.04;350.013,350.04;349.992,350.059;350.037,350.006;349.976,350.075;350.002,350.078;350.055,350.009;349.939,350.026;350.039,350.037;349.955,350.039;349.986,350.059;349.994,350.068;349.992,350.075;350.009,350.041;350.044,350.034;350.051,349.987;350.036,349.985;349.957,349.971;349.991,350.034;350.026,349.982;350.058,349.989;349.927,349.987;350.029,349.996;349.984,349.977;349.978,349.945;350.019,350.015;349.962,350.071;349.992,349.938;350.022,350.009;349.948,349.951;349.99,350.041;349.942,350.061;349.976,350.012;349.936,350.035;349.948,349.955;350.034,350.021;349.994,349.982;350.034,350.044;350.021,349.993;350.003,349.951;350.017,349.998;350.059,349.986;349.984,350.058;350.036,349.935;350.023,349.992;350.01,350.045;350.033,349.979;350.072,349.973;350.029,349.982;350.066,349.988;349.992,350.058;350.054,350.044;350.052,350.053;349.994,350.047;350.068,350.129;349.987,350.009;350.086,350.078;350.048,350.072;350.009,350.045;350.101,349.982;350,350;350,350"/>
      <animateTransform attributeName="transform" additive="sum" type="rotate" repeatCount="indefinite" dur="2.917s" keyTimes="0;.014;.029;.043;.057;.071;.086;.1;.114;.129;.143;.157;.171;.186;.2;.214;.229;.243;.257;.271;.286;.3;.314;.329;.343;.357;.371;.386;.4;.414;.429;.443;.457;.471;.486;.5;.514;.529;.543;.557;.571;.586;.6;.614;.628;.643;.657;.671;.686;.7;.714;.728;.743;.757;.771;.786;.8;.814;.828;.843;.857;.871;.886;.9;.914;.928;.943;.957;.971;.986;1" values="0,0,0;5.054,0,0;10.301,0,0;15.551,0,0;20.801,0,0;26.056,0,0;31.314,0,0;36.572,0,0;41.641,0,0;46.9,0,0;52.16,0,0;57.418,0,0;62.673,0,0;67.929,0,0;73.182,0,0;78.432,0,0;83.49,0,0;88.735,0,0;93.791,0,0;99.038,0,0;104.284,0,0;109.537,0,0;114.791,0,0;120,0,0;125.114,0,0;130.374,0,0;135.633,0,0;140.89,0,0;146.15,0,0;151.407,0,0;156.663,0,0;161.727,0,0;166.978,0,0;172.227,0,0;177.472,0,0;182.525,0,0;187.771,0,0;193.02,0,0;198.271,0,0;203.334,0,0;208.591,0,0;213.849,0,0;219.107,0,0;224.364,0,0;229.624,0,0;234.883,0,0;240,0,0;245.206,0,0;250.462,0,0;255.713,0,0;260.96,0,0;266.207,0,0;271.262,0,0;276.508,0,0;281.565,0,0;286.816,0,0;292.069,0,0;297.324,0,0;302.58,0,0;307.838,0,0;313.098,0,0;318.357,0,0;323.426,0,0;328.684,0,0;333.941,0,0;339.196,0,0;344.446,0,0;349.697,0,0;354.944,0,0;360,0,0;360,0,0"/>
      <animateTransform attributeName="transform" additive="sum" type="scale" repeatCount="indefinite" dur="2.917s" keyTimes="0;.014;.029;.043;.057;.071;.171;.186;.2;.214;.229;.243;.257;.271;.286;.3;.314;.329;.343;.414;.429;.443;.457;.471;.486;.5;.514;.529;.543;.557;.571;.643;.657;.671;.686;.7;.714;.728;.743;.757;.771;.786;.8;.814;.914;.928;.943;.957;.971;.986;1" values="1,1;1,.999;1,.999;.998,.998;.998,.998;.997,.997;.997,.997;.998,.998;.998,.998;1,.999;1,.999;1,1;1,1;1,.999;.998,.998;.998,.998;.997,.997;1,.999;.997,.997;.997,.997;.998,.998;.998,.998;1,.999;1,.999;1,1;1,1;1,.999;1,.999;.998,.998;.998,.998;.997,.997;.997,.997;1,.999;.997,.997;.998,.998;.998,.998;1,.999;1,1;1,1;1,.999;1,.999;.998,.998;.998,.998;.997,.997;.997,.997;.998,.998;.998,.998;1,.999;1,.999;1,1;1,1"/>
      <animateTransform attributeName="transform" additive="sum" type="translate" repeatCount="indefinite" dur="2.917s" keyTimes="0;.014;.029;.043;.057;.071;.086;.1;.129;.143;.157;.171;.186;.2;.214;.229;.243;.257;.271;.286;.3;.314;.329;.343;.357;.371;.386;.4;.414;.429;.443;.457;.471;.486;.5;.514;.529;.543;.557;.571;.586;.6;.614;.628;.643;.657;.671;.686;.7;.714;.728;.743;.757;.771;.786;.8;.814;.828;.843;.857;.871;.886;.9;.914;.928;.943;.957;.971;.986;1" values="-188,-188;-188.05,-188.1;-188.1,-188.1;-188.1,-188.05;-188.1,-188.05;-188.05,-188;-188.2,-188;-188.05,-188;-188.05,-188;-188.15,-187.95;-188.05,-188;-188.05,-187.9;-188.1,-187.95;-188.1,-187.95;-188.05,-187.9;-188,-187.95;-188.05,-187.9;-188.05,-187.9;-188.05,-187.95;-188.1,-187.9;-188.05,-187.9;-188,-187.9;-188.05,-187.9;-187.9,-187.9;-187.95,-187.95;-188,-187.95;-188,-187.85;-187.95,-187.95;-187.9,-187.95;-188,-187.95;-187.95,-187.9;-188,-187.95;-187.95,-188;-187.85,-187.95;-187.95,-187.85;-187.95,-187.95;-187.85,-188;-188,-187.95;-187.9,-187.9;-187.95,-187.9;-187.9,-187.95;-188,-187.95;-188,-187.95;-187.85,-188;-187.95,-187.95;-187.9,-188.05;-187.95,-188.05;-187.95,-188.05;-187.9,-188.05;-187.95,-188.05;-187.9,-188;-188,-188;-187.95,-188.05;-187.9,-188;-187.95,-188.05;-187.95,-188.1;-187.95,-188.15;-187.95,-188.15;-187.85,-188.1;-187.95,-188.05;-188,-188.1;-187.95,-188.1;-188,-188.2;-188,-188.05;-188.05,-188.1;-188.05,-188.1;-188,-188.05;-188.15,-188.05;-188,-188;-188,-188"/>
      <path fill="#069" stroke="none" d="M389.8 30.75Q443.85 98.15 443.7 188.05 443.7 268.3 400.55 330.8L459.55 369.25Q463.75 363.15 467.6 356.95 513.95 282.1 514 188.05 513.85 82.25 455.15 .55 452.3 -3.35 449.35 -7.25L389.8 30.75Z"/>
      <path fill="#F00" stroke="none" d="M58.9 -112.2Q54.1 -110.15 49.45 -107.85 35.05 -101.15 21.4 -92.75L21.45 -92.85Q-6.15 -76.15 -31.3 -53.1L-32.35 -52Q-32.55 -51.95 -32.6 -51.8 -36.15 -48.6 -39.5 -45.35 -39.8 -45.05 -40.05 -44.75 -40.9 -44.05 -41.6 -43.3 -42.05 -42.8 -42.45 -42.45 -137.95 53.1 -137.85 188.05 -137.95 323 -42.45 418.5 48.05 509 174.2 513.8L174.65 513.85Q181.4 514 188.05 514 323 513.95 418.45 418.5L418.5 418.45Q441.85 395 459.55 369.25L400.55 330.8Q391.3 344.25 380 356.95 374.6 362.9 368.8 368.8 293.9 443.7 188.05 443.7 182.5 443.65 176.9 443.55 78.2 439.7 7.3 368.8 -67.55 293.9 -67.55 188.05 -67.55 82.15 7.3 7.2L7.3 7.3Q7.7 6.9 8.15 6.45 8.3 6.2 8.55 6.05 9.1 5.45 9.7 4.9 12.7 1.95 15.9 -.8L15.9 -.95Q16.05 -1.15 16.25 -1.3L16.5 -1.45Q36.25 -19.55 57.9 -32.7L57.95 -32.75Q68.3 -39.1 79.3 -44.2L79.85 -44.5Q83.1 -46.15 86.4 -47.55L86.65 -47.6Q128.35 -65.7 176.75 -67.35L177.3 -67.35Q182.65 -67.55 188.05 -67.55 253.85 -67.8 307.7 -38.8L307.7 -38.7Q324.45 -29.75 340 -17.9L339.95 -18Q345.8 -13.45 351.6 -8.55L351.55 -8.7Q356.7 -4.2 361.9 .55 365.3 3.8 368.8 7.3 370.1 8.6 371.35 9.95L371.55 10.15Q381.3 20.15 389.8 30.75L449.35 -7.25Q447.05 -10.25 444.65 -13.25L444.55 -13.35Q434.05 -26.4 422 -38.85L422.2 -38.55Q420.35 -40.5 418.5 -42.45 408 -52.85 397.1 -62.25L396.95 -62.3Q389.9 -68.35 382.6 -73.85L382.55 -73.85Q362.5 -89.15 340.95 -100.65L341 -100.65Q272.1 -137.7 188.05 -137.85 180.9 -137.95 173.8 -137.55L174.25 -137.55Q112.1 -135.3 58.65 -112.1L58.9 -112.2Z"/>
    </g>
  </g>
</svg>